<?xml version="1.0" encoding="utf-8"?>
<!-- Generator: Adobe Illustrator 17.0.0, SVG Export Plug-In . SVG Version: 6.00 Build 0)  -->
<!DOCTYPE svg PUBLIC "-//W3C//DTD SVG 1.1//EN" "http://www.w3.org/Graphics/SVG/1.1/DTD/svg11.dtd">
<svg version="1.1" id="Layer_1" xmlns="http://www.w3.org/2000/svg" xmlns:xlink="http://www.w3.org/1999/xlink" x="0px" y="0px"
	 width="88.75px" height="15.248px" viewBox="0 0 88.75 15.248" enable-background="new 0 0 88.75 15.248" xml:space="preserve">
<polygon fill="#F5C837" points="31.189,15.189 26.224,11.828 21.299,15.248 22.962,9.487 18.187,5.86 24.18,5.662 26.154,0 
	28.194,5.638 34.189,5.766 29.458,9.449 "/>
<polygon fill="#F5C837" points="85.75,15.189 80.785,11.828 75.86,15.248 77.523,9.487 72.748,5.86 78.741,5.662 80.715,0 
	82.756,5.638 88.75,5.766 84.019,9.449 "/>
<polygon fill="#F5C837" points="13.001,15.189 8.037,11.828 3.112,15.248 4.774,9.487 0,5.86 5.993,5.662 7.966,0 10.007,5.638 
	16.002,5.766 11.271,9.449 "/>
<polygon fill="#F5C837" points="67.563,15.189 62.598,11.828 57.673,15.248 59.336,9.487 54.561,5.86 60.554,5.662 62.528,0 
	64.569,5.638 70.563,5.766 65.832,9.449 "/>
<polygon fill="#F5C837" points="49.251,15.189 44.286,11.828 39.361,15.248 41.024,9.487 36.249,5.86 42.242,5.662 44.216,0 
	46.257,5.638 52.251,5.766 47.52,9.449 "/>
</svg>
