<?xml version="1.0" encoding="utf-8"?>
<!-- Generator: Adobe Illustrator 17.0.0, SVG Export Plug-In . SVG Version: 6.00 Build 0)  -->
<!DOCTYPE svg PUBLIC "-//W3C//DTD SVG 1.1//EN" "http://www.w3.org/Graphics/SVG/1.1/DTD/svg11.dtd">
<svg version="1.1" id="Layer_3" xmlns="http://www.w3.org/2000/svg" xmlns:xlink="http://www.w3.org/1999/xlink" x="0px" y="0px"
	 width="140px" height="140px" viewBox="0 0 140 140" enable-background="new 0 0 140 140" xml:space="preserve">
<path fill="#8E94EB" d="M140,53.5v58c0,4.42-3.58,8-8,8h-4.5v1.17c0,1.56-1.27,2.83-2.83,2.83c-0.79,0-1.49-0.32-2.01-0.83
	c-0.51-0.51-0.83-1.22-0.83-2v-1.17H18.17v1.17c0,1.56-1.27,2.83-2.84,2.83c-0.78,0-1.49-0.32-2-0.83s-0.83-1.22-0.83-2v-1.17H8.83
	c-4.41,0-8-3.58-8-8v-58H140z"/>
<path fill="#8E94EB" d="M132,33.83H8.83c-4.41,0-8,3.59-8,8v5.67H140v-5.67C140,37.42,136.42,33.83,132,33.83z M84.42,43.5H55.25
	c-1.33,0-2.42-1.08-2.42-2.42c0-0.66,0.27-1.27,0.71-1.7c0.44-0.44,1.04-0.71,1.71-0.71h29.17c1.33,0,2.41,1.08,2.41,2.41
	C86.83,42.42,85.75,43.5,84.42,43.5z"/>
</svg>
