<?xml version="1.0" encoding="utf-8"?>
<!-- Generator: Adobe Illustrator 17.0.0, SVG Export Plug-In . SVG Version: 6.00 Build 0)  -->
<!DOCTYPE svg PUBLIC "-//W3C//DTD SVG 1.1//EN" "http://www.w3.org/Graphics/SVG/1.1/DTD/svg11.dtd">
<svg version="1.1" id="Layer_1" xmlns="http://www.w3.org/2000/svg" xmlns:xlink="http://www.w3.org/1999/xlink" x="0px" y="0px"
	 width="140px" height="140px" viewBox="0 0 140 140" enable-background="new 0 0 140 140" xml:space="preserve">
<path fill="#8E94EB" d="M18,30c-3.281,0-6.57,0-9.849,0H6v1.834C6,36.566,6,41.287,6,46c0,19.704,0,39.218,0,58.308
	c1,0.407,1.959,0.802,2.846,1.196C8.848,107.987,11.016,110,13.5,110h8c2.361,0,4.276-1.985,4.464-4.298
	c0.3-0.181,0.593,0.298,0.898-0.702c28.799,0,57.975,0,86.329,0c0.288,0,0.566,0.508,0.843,0.678
	c0.176,2.324,2.096,4.322,4.466,4.322h8c2.449,0,4.587-1.959,4.644-4.394c0.906-0.388,1.856-0.773,2.856-1.155
	c0-24.707,0-49.45,0-74.45C95.294,30,56.558,30,18,30z M18,92c0-15.658,0-30.476,0-46c0-1.331,0-2.658,0-4c23,0,46.114,0,69.317,0
	c-0.079,0,0.132,0.028,0.266,0.225c0.124,0.183,0.235,0.557,0.235,0.771C87.829,59.204,87.828,75,87.828,92C64.631,92,42,92,18,92z
	 M103,87.5c0,1.933-1.858,3.5-4,3.5c-1.853,0-3.51-1.175-3.919-2.743C95.061,88.235,95,88.216,95,88.193c0-0.106,0-0.214,0-0.32
	c0-0.124,0-0.245,0-0.373v-43c0-1.933,1.858-3.5,4-3.5s4,1.567,4,3.5V87.5z M116,87.625c0,0.759-0.616,1.375-1.375,1.375h-4.25
	c-0.759,0-1.375-0.616-1.375-1.375v-3.25c0-0.759,0.616-1.375,1.375-1.375h4.25c0.759,0,1.375,0.616,1.375,1.375V87.625z
	 M116,78.625c0,0.759-0.616,1.375-1.375,1.375h-4.25c-0.759,0-1.375-0.616-1.375-1.375v-3.25c0-0.759,0.616-1.375,1.375-1.375h4.25
	c0.759,0,1.375,0.616,1.375,1.375V78.625z M116,69.625c0,0.759-0.616,1.375-1.375,1.375h-4.25c-0.759,0-1.375-0.616-1.375-1.375
	v-3.25c0-0.759,0.616-1.375,1.375-1.375h4.25c0.759,0,1.375,0.616,1.375,1.375V69.625z M126,87.625c0,0.759-0.616,1.375-1.375,1.375
	h-4.25c-0.759,0-1.375-0.616-1.375-1.375v-3.25c0-0.759,0.616-1.375,1.375-1.375h4.25c0.759,0,1.375,0.616,1.375,1.375V87.625z
	 M126,78.625c0,0.759-0.616,1.375-1.375,1.375h-4.25c-0.759,0-1.375-0.616-1.375-1.375v-3.25c0-0.759,0.616-1.375,1.375-1.375h4.25
	c0.759,0,1.375,0.616,1.375,1.375V78.625z M126,69.625c0,0.759-0.616,1.375-1.375,1.375h-4.25c-0.759,0-1.375-0.616-1.375-1.375
	v-3.25c0-0.759,0.616-1.375,1.375-1.375h4.25c0.759,0,1.375,0.616,1.375,1.375V69.625z M126,55c-5,0-10.961,0-17.202,0
	c-0.389-4-0.046-8-0.195-12c5.86,0,11.398,0,17.398,0C126,47,126,51,126,55z"/>
</svg>
