<?xml version="1.0" encoding="utf-8"?>
<!-- Generator: Adobe Illustrator 17.0.0, SVG Export Plug-In . SVG Version: 6.00 Build 0)  -->
<!DOCTYPE svg PUBLIC "-//W3C//DTD SVG 1.1//EN" "http://www.w3.org/Graphics/SVG/1.1/DTD/svg11.dtd">
<svg version="1.1" id="Layer_3" xmlns="http://www.w3.org/2000/svg" xmlns:xlink="http://www.w3.org/1999/xlink" x="0px" y="0px"
	 width="140px" height="140px" viewBox="0 0 140 140" enable-background="new 0 0 140 140" xml:space="preserve">
<rect x="11.167" y="6.25" fill="#FFFFFF" width="116.459" height="15.75"/>
<g>
	<path fill="#FFFFFF" d="M3.33,56.31v52.86H50.5V56.31H3.33z M44.83,92.2c0,3.46-3.69,6.27-8.26,6.27H18.09
		c-4.56,0-8.26-2.81-8.26-6.27V70.13c0-3.46,3.7-6.27,8.26-6.27h18.48c4.57,0,8.26,2.81,8.26,6.27V92.2z"/>
	<path fill="#FFFFFF" d="M129.67,27H10.33c-3.86,0-7,3.13-7,7v19.69h133.34V34C136.67,30.13,133.53,27,129.67,27z M14.23,49.64
		c-2.88,0-5.22-2.19-5.22-4.89s2.34-4.89,5.22-4.89c2.89,0,5.22,2.19,5.22,4.89S17.12,49.64,14.23,49.64z M28.29,49.64
		c-2.88,0-5.22-2.19-5.22-4.89s2.34-4.89,5.22-4.89c2.89,0,5.23,2.19,5.23,4.89S31.18,49.64,28.29,49.64z M47.02,49.64
		c-2.88,0-5.22-2.19-5.22-4.89s2.34-4.89,5.22-4.89c2.89,0,5.23,2.19,5.23,4.89S49.91,49.64,47.02,49.64z M67.89,49.64
		c-2.89,0-5.23-2.19-5.23-4.89s2.34-4.89,5.23-4.89c2.88,0,5.22,2.19,5.22,4.89S70.77,49.64,67.89,49.64z M84.73,49.64
		c-2.89,0-5.23-2.19-5.23-4.89s2.34-4.89,5.23-4.89c2.88,0,5.22,2.19,5.22,4.89S87.61,49.64,84.73,49.64z M98.47,49.64
		c-2.88,0-5.22-2.19-5.22-4.89s2.34-4.89,5.22-4.89c2.88,0,5.22,2.19,5.22,4.89S101.35,49.64,98.47,49.64z M111.73,49.64
		c-2.88,0-5.22-2.19-5.22-4.89s2.34-4.89,5.22-4.89s5.22,2.19,5.22,4.89S114.61,49.64,111.73,49.64z M125.48,49.64
		c-2.88,0-5.22-2.19-5.22-4.89s2.34-4.89,5.22-4.89c2.89,0,5.22,2.19,5.22,4.89S128.37,49.64,125.48,49.64z"/>
	<path fill="#FFFFFF" d="M54.5,56.31v52.86h82.17V56.31H54.5z M124.93,92.51c0,3.29-2.67,5.96-5.96,5.96H71.03
		c-3.29,0-5.96-2.67-5.96-5.96V69.82c0-3.29,2.67-5.96,5.96-5.96h47.94c3.29,0,5.96,2.67,5.96,5.96V92.51z"/>
	<path fill="#FFFFFF" d="M3.333,113.833V122c0,3.866,3.134,7,7,7h4.133v1.167c0,2.025,1.642,3.667,3.667,3.667h4.033
		c2.025,0,3.667-1.642,3.667-3.667V129h38.483v1.167c0,2.025,1.642,3.667,3.667,3.667h4.033c2.025,0,3.667-1.642,3.667-3.667V129
		h40.006v1.167c0,2.025,1.642,3.667,3.667,3.667h4.033c2.025,0,3.667-1.642,3.667-3.667V129h2.611c3.866,0,7-3.134,7-7v-8.167H3.333
		z"/>
</g>
</svg>
