<?xml version="1.0" encoding="utf-8"?>
<!-- Generator: Adobe Illustrator 17.0.0, SVG Export Plug-In . SVG Version: 6.00 Build 0)  -->
<!DOCTYPE svg PUBLIC "-//W3C//DTD SVG 1.1//EN" "http://www.w3.org/Graphics/SVG/1.1/DTD/svg11.dtd">
<svg version="1.1" id="Layer_1" xmlns="http://www.w3.org/2000/svg" xmlns:xlink="http://www.w3.org/1999/xlink" x="0px" y="0px"
	 width="16px" height="16px" viewBox="0 0 16 16" enable-background="new 0 0 16 16" xml:space="preserve">
<path fill-rule="evenodd" clip-rule="evenodd" fill="#FFFFFF" d="M15.306,4.303c0.426,0,0.197-0.028,0.49,0.096
	c0.028,0.21,0.093,0.408,0.195,0.592c-0.785,0-0.477,2.317-1.42,2.317c-0.286,0,0.055-0.419,0.077-0.456
	c-0.617,0.029-4.505,0.355-4.631-0.107C9.965,7.498,9.899,8.249,9.823,8.998C8.657,8.162,7.009,9.416,7.767,6.549
	C7.919,6.571,8.05,6.636,8.158,6.745C7.657,5.589,6.963,1.488,8.27,0.965c0-0.274-0.312,0.122-0.371-0.097
	C7.895,0.853,8.349,0.575,8.392,0.59c0.548,0.192,4.739-0.276,4.564,0.571c0.447,0.034,3.38-0.919,2.84,1.666
	C14.426,2.331,14.833,3.1,15.306,4.303z M13.445,3.512c-0.075-1.433-2.252-0.766-3.622-0.766c0.019,0.727,0.49,0.916,0.881,1.452
	c-0.297,0.174-0.59,0.174-0.882,0c0.937,1.111,0.222,0.703,1.462,0.686c0.426,0.071,0.86-0.429,0.86,0
	c0-0.008,0.015-0.01,0.043-0.007c0.041-0.006,0.097,0.012,0.133,0.018c0.047,0.007,0.091,0.014,0.136,0.027
	c0.068,0.019,0.15,0.024,0.228,0.036C13.881,4.929,13.923,3.443,13.445,3.512z M6.643,8.791c-0.107,0.155-0.25-0.325-0.248-0.324
	c-0.813,1.597-0.461,0.376-1.071,0.221C5.246,8.89,5.118,9.053,4.94,9.178c0-0.21-0.49-0.207-1.041-0.156
	c-0.566,0.052-1.145,0.152-1.42,0.17H2.478C2.254,9.216,1.871,9.209,1.692,9.183C0.159,8.958-0.074,7.291,0.03,5.754
	C0.65,5.79,0.005,5.76,0.715,5.372C2.479,4.986,1.322,7.439,3.59,7.065c0.035-0.006,2.401,0.139,2.022-0.63
	C5.57,6.75,5.374,6.848,5.025,6.729c0.284-2.118-0.385-4.218-0.196-5.487c1.427,0.238,3.136-0.941,2.142,2.257
	C7.047,5.013,7.534,7.482,6.643,8.791z M0.757,10.231c1.058-0.889,5.861-0.205,7.499-0.495c0.435,0.193,0.892,0.258,1.371,0.195
	c-0.104,0.305-0.194,0.571-0.277,0.801c-0.128-0.056-0.246-0.077-0.321,0.029c-0.043,0.06-0.055,0.108-0.071,0.133
	c-0.067,0.099-0.048,0.058-0.121,0.131c-0.119,0.118,0.035,0.249-0.146,0.322c-0.014,0.055-0.064,0.118-0.05,0.172
	c0.02,0.019,0.009,0.081,0.063,0.091c0.128,0.037,0.163,0.019,0.274-0.01c-0.445,0.772-0.996,0.649-2.918,0.671
	c-1.026,0.012-2.39-0.08-3.288-0.187c-0.164-0.02-0.569,0.094-1.005-0.091c-0.104-0.044-0.209-0.096-0.312-0.154
	c0.051-0.122,0.049-0.275-0.043-0.468c-0.31,0.024-0.494-0.014-0.659-0.095c-0.188-0.227-0.287-0.474-0.223-0.708
	C0.692,10.469,0.83,10.361,0.757,10.231z M2.095,13.017c0.001-0.001,0.002-0.001,0.004-0.002c0.228-0.028,0.505-0.248,0.851-0.287
	c1.157-0.133,2.846-0.067,4.029,0.169c0.375,0.075,0.696,0.15,0.937,0.264c-0.264-0.003-0.555,0.386-1.149,0.494
	c0,0,0.086,0.147,0.23,0.364c-0.898-0.006-1.9-0.127-2.656-0.219c-0.012-0.001-0.959,0.1-1.682-0.058
	C2.051,13.61,1.59,13.24,2.095,13.017z M13.957,8.968c-0.827,0.848-2.276,0.351-2.862-0.546c-0.145,0.675-0.373,0.414-0.685-0.784
	c1.371,0.018,2.742-0.04,4.113,0c-0.034,0.257-0.091,0.482-0.164,0.677c-0.038-0.067-0.047-0.143-0.043-0.225
	c-0.138,0.118-0.264,0.242-0.36,0.364C13.718,8.759,13.793,8.889,13.957,8.968z M10.466,11.533c0.05-0.192-0.553-2.35-0.435-2.318
	c0.252,0.068,0.502,0.444,0.744,0.567c0.408,0.207,0.702,0.688,1.138,0.817c0.67,0.197,1.413-1.32,2.158-0.884
	c-0.334,0.262-0.236,0.508-0.372,0.882c-0.122,0.336-0.387,0.66-0.375,1.034c0.013,0.397,0.45,0.588,0.698,0.825
	c0.284,0.272,0.477,0.601,0.866,0.74c0.002,0.001,0.003,0.002,0.005,0.003c0.026,0.012,0.05,0.029,0.07,0.055
	c-0.043-0.021-0.088-0.03-0.135-0.028c0.302,0.213-0.175,0.213-0.307,0.203c-0.511-0.039-1.023-0.051-1.535-0.049
	c-0.426,0.002-0.53,0.174-0.648,0.551c-0.164,0.525-0.453,1.002-0.717,1.481c-0.134-0.181-0.123-0.392-0.213-0.579
	c0.028,0.059,0.004,0.101-0.07,0.127c-0.086-0.472-0.227-1.752-0.786-1.848c-0.262-0.045-1.962,0.037-1.996-0.144
	C8.455,12.428,10.346,11.989,10.466,11.533z"/>
</svg>
