<?xml version="1.0" encoding="utf-8"?>
<!-- Generator: Adobe Illustrator 17.0.0, SVG Export Plug-In . SVG Version: 6.00 Build 0)  -->
<!DOCTYPE svg PUBLIC "-//W3C//DTD SVG 1.1//EN" "http://www.w3.org/Graphics/SVG/1.1/DTD/svg11.dtd">
<svg version="1.1" id="Layer_2" xmlns="http://www.w3.org/2000/svg" xmlns:xlink="http://www.w3.org/1999/xlink" x="0px" y="0px"
	 width="140px" height="140px" viewBox="0 0 140 140" enable-background="new 0 0 140 140" xml:space="preserve">
<rect x="25" y="126" fill="#FFD629" width="91" height="10"/>
<path fill="#FFD629" d="M22,4v115h37V4H22z M51,77.625C51,78.384,50.384,79,49.625,79h-3.25C45.616,79,45,78.384,45,77.625v-40.25
	C45,36.616,45.616,36,46.375,36h3.25C50.384,36,51,36.616,51,37.375V77.625z"/>
<path fill="#FFD629" d="M66,4v116h52V4H66z M79,38.054V76.56v1.065C79,78.384,78.384,79,77.625,79h-3.25
	C73.616,79,73,78.384,73,77.625v-40.25C73,36.616,73.616,36,74.375,36h3.25C78.384,36,79,36.616,79,37.375V38.054z"/>
</svg>
