<?xml version="1.0" encoding="utf-8"?>
<!-- Generator: Adobe Illustrator 17.0.0, SVG Export Plug-In . SVG Version: 6.00 Build 0)  -->
<!DOCTYPE svg PUBLIC "-//W3C//DTD SVG 1.1//EN" "http://www.w3.org/Graphics/SVG/1.1/DTD/svg11.dtd">
<svg version="1.1" id="Layer_3" xmlns="http://www.w3.org/2000/svg" xmlns:xlink="http://www.w3.org/1999/xlink" x="0px" y="0px"
	 width="140px" height="140px" viewBox="0 0 140 140" enable-background="new 0 0 140 140" xml:space="preserve">
<g>
	<path fill="#FFD629" d="M124.194,54.698v79.526c0,1.161-0.95,2.111-2.111,2.111H17.917c-1.161,0-2.111-0.95-2.111-2.111V54.698
		h29.169c1.9,3.389,12.331,5.975,24.936,5.975s23.046-2.586,24.936-5.975H124.194z"/>
	<path fill="#FFD629" d="M122.083,3.665H17.917c-1.161,0-2.111,0.95-2.111,2.111v38.185h108.389V5.776
		C124.194,4.615,123.244,3.665,122.083,3.665z M33.668,30.765c-3.357,0-6.07-2.713-6.07-6.07s2.713-6.07,6.07-6.07
		s6.07,2.713,6.07,6.07S37.025,30.765,33.668,30.765z M81.259,31.821H59.976V16.513h21.283V31.821z M100.79,27.946
		c-1.742,0-3.167-1.415-3.167-3.167c0-1.742,1.425-3.167,3.167-3.167c1.752,0,3.167,1.425,3.167,3.167
		C103.957,26.531,102.542,27.946,100.79,27.946z M111.568,27.862c-1.742,0-3.167-1.415-3.167-3.167s1.425-3.167,3.167-3.167
		c1.752,0,3.167,1.415,3.167,3.167S113.321,27.862,111.568,27.862z"/>
</g>
</svg>
