<?xml version="1.0" encoding="utf-8"?>
<!-- Generator: Adobe Illustrator 17.0.0, SVG Export Plug-In . SVG Version: 6.00 Build 0)  -->
<!DOCTYPE svg PUBLIC "-//W3C//DTD SVG 1.1//EN" "http://www.w3.org/Graphics/SVG/1.1/DTD/svg11.dtd">
<svg version="1.1" id="Layer_2" xmlns="http://www.w3.org/2000/svg" xmlns:xlink="http://www.w3.org/1999/xlink" x="0px" y="0px"
	 width="140px" height="140px" viewBox="0 0 140 140" enable-background="new 0 0 140 140" xml:space="preserve">
<path fill="#FFD629" d="M114.719,3H27.635C24.387,3,21,3.456,21,6.704V33h6.635c0,0,34.08,4.389,45.448,4.413
	C83.51,37.437,114.719,33,114.719,33H119V6.704C119,3.456,117.967,3,114.719,3z M38.956,22.591c-3.483,0-6.319-2.766-6.319-6.178
	c0-3.413,2.836-6.178,6.319-6.178c3.495,0,6.331,2.765,6.331,6.178C45.287,19.825,42.451,22.591,38.956,22.591z M81,22.646
	c0,1.3-1.054,2.354-2.354,2.354H63.354C62.054,25,61,23.946,61,22.646V12.354c0-1.3,1.054-2.354,2.354-2.354h15.293
	c1.3,0,2.354,1.054,2.354,2.354v10.292H81z M99.714,19.649c-1.706,0-3.095-1.412-3.095-3.166c0-1.742,1.389-3.166,3.095-3.166
	s3.095,1.424,3.095,3.166C102.81,18.237,101.421,19.649,99.714,19.649z M109.129,19.649c-1.706,0-3.095-1.412-3.095-3.166
	c0-1.742,1.389-3.166,3.095-3.166s3.095,1.424,3.095,3.166C112.224,18.237,110.835,19.649,109.129,19.649z"/>
<path fill="#FFD629" d="M89.559,83.926c0-3.86,2.012-7.096,4.743-7.991c-3.142-9.803-12.051-16.864-22.536-16.864
	c-13.121,0-23.772,11.062-23.772,24.713s10.65,24.713,23.772,24.713c10.391,0,19.241-6.943,22.454-16.617
	C91.536,90.964,89.559,87.751,89.559,83.926z M68.964,81.431c-2.942,5.743-7.649,17.946-9.85,15.004
	c-2.201-2.942-3.683-14.487,0-21.771s15.593-11.921,19.264-9.261C82.062,68.039,73.942,71.735,68.964,81.431z"/>
<path fill="#FFD629" d="M114.719,38c0,0-31.739,4.292-42.071,4.398C60.927,42.515,27.635,38,27.635,38H21v80.713
	C21,129.775,24.387,138,27.635,138h87.084c3.248,0,4.281-8.225,4.281-19.287V38H114.719z M71.765,118.36
	c-18.358,0-33.245-15.487-33.245-34.575S53.407,49.21,71.765,49.21s33.245,15.487,33.245,34.575
	C105.01,102.873,90.123,118.36,71.765,118.36z"/>
<path fill="#FFD629" d="M89.559,83.926c0-3.86,2.012-7.096,4.743-7.991c-3.142-9.803-12.051-16.864-22.536-16.864
	c-13.121,0-23.772,11.062-23.772,24.713s10.65,24.713,23.772,24.713c10.391,0,19.241-6.943,22.454-16.617
	C91.536,90.964,89.559,87.751,89.559,83.926z M68.964,81.431c-2.942,5.743-7.649,17.946-9.85,15.004
	c-2.201-2.942-3.683-14.487,0-21.771s15.593-11.921,19.264-9.261C82.062,68.039,73.942,71.735,68.964,81.431z"/>
</svg>
